<svg width="36" height="20" viewBox="0 0 36 20" fill="none" xmlns="http://www.w3.org/2000/svg">
<path d="M33.5012 0.925978L17.9984 16.0688L2.49561 0.925978C2.21862 0.65488 1.84679 0.503108 1.4596 0.503108C1.07241 0.503108 0.700586 0.65488 0.423602 0.925978C0.289487 1.05765 0.18294 1.21482 0.110203 1.38827C0.0374656 1.56172 0 1.74798 0 1.93612C0 2.12426 0.0374656 2.31052 0.110203 2.48397C0.18294 2.65742 0.289487 2.81459 0.423602 2.94626L16.9159 19.0588C17.2055 19.3417 17.594 19.5 17.9984 19.5C18.4029 19.5 18.7913 19.3417 19.0809 19.0588L35.5732 2.94937C35.7083 2.8176 35.8156 2.66005 35.8889 2.48602C35.9622 2.31199 36 2.12501 36 1.93612C36 1.74723 35.9622 1.56025 35.8889 1.38622C35.8156 1.21219 35.7083 1.05464 35.5732 0.922869C35.2962 0.651771 34.9244 0.5 34.5372 0.5C34.15 0.5 33.7782 0.651771 33.5012 0.922869V0.925978Z" fill="black"/>
</svg>
