<svg width="29" height="24" viewBox="0 0 29 24" fill="none" xmlns="http://www.w3.org/2000/svg">
<path d="M12.3177 0.182465C12.3758 0.240509 12.4219 0.309439 12.4533 0.385313C12.4848 0.461187 12.501 0.542517 12.501 0.624653C12.501 0.706787 12.4848 0.788116 12.4533 0.863991C12.4219 0.939865 12.3758 1.00879 12.3177 1.06684L2.13487 11.2497L28.1255 11.2497C28.2913 11.2497 28.4502 11.3155 28.5674 11.4327C28.6846 11.5499 28.7505 11.7089 28.7505 11.8747C28.7505 12.0404 28.6846 12.1994 28.5674 12.3166C28.4502 12.4338 28.2913 12.4997 28.1255 12.4997L2.13487 12.4997L12.3177 22.6825C12.3757 22.7405 12.4218 22.8095 12.4532 22.8853C12.4847 22.9612 12.5008 23.0425 12.5008 23.1247C12.5008 23.2068 12.4847 23.2881 12.4532 23.364C12.4218 23.4398 12.3757 23.5088 12.3177 23.5668C12.2596 23.6249 12.1907 23.671 12.1148 23.7024C12.0389 23.7338 11.9576 23.75 11.8755 23.75C11.7934 23.75 11.7121 23.7338 11.6362 23.7024C11.5603 23.671 11.4914 23.6249 11.4333 23.5668L0.183304 12.3168C0.125194 12.2588 0.0790947 12.1899 0.047642 12.114C0.0161893 12.0381 0 11.9568 0 11.8747C0 11.7925 0.0161893 11.7112 0.047642 11.6353C0.0790947 11.5594 0.125194 11.4905 0.183304 11.4325L11.4333 0.182465C11.4913 0.124353 11.5603 0.0782547 11.6362 0.0468025C11.712 0.0153484 11.7934 -0.000839233 11.8755 -0.000839233C11.9576 -0.000839233 12.039 0.0153484 12.1148 0.0468025C12.1907 0.0782547 12.2596 0.124353 12.3177 0.182465Z" fill="white"/>
</svg>
