<svg width="213" height="98" viewBox="0 0 213 98" fill="none" xmlns="http://www.w3.org/2000/svg">
<path d="M140.886 97.9473C135.152 97.9473 129.73 96.8036 124.623 94.516C119.605 92.2284 115.528 88.8411 112.392 84.3539C109.256 79.8668 107.688 74.3679 107.688 67.8571V32.0919C107.688 30.9482 107.419 29.9804 106.882 29.1885C106.434 28.3087 105.806 27.6488 105 27.2089C104.193 26.769 103.253 26.549 102.177 26.549C101.102 26.549 100.117 26.769 99.2205 27.2089C98.414 27.6488 97.742 28.3087 97.2044 29.1885C96.7564 29.9804 96.5323 30.9482 96.5323 32.0919V70.8696H68.8448V32.3559C68.8448 25.9331 70.3681 20.4782 73.4146 15.991C76.5507 11.5039 80.6725 8.07255 85.7799 5.69701C90.8873 3.32146 96.3531 2.13369 102.177 2.13369C108.002 2.13369 113.423 3.32146 118.44 5.69701C123.458 8.07255 127.535 11.5039 130.671 15.991C133.807 20.4782 135.376 25.9331 135.376 32.3559V68.1211C135.376 69.2648 135.644 70.2766 136.182 71.1565C136.72 71.9483 137.392 72.5642 138.198 73.0041C139.004 73.444 139.856 73.664 140.752 73.664C141.737 73.664 142.678 73.444 143.574 73.0041C144.47 72.5642 145.187 71.9483 145.725 71.1565C146.262 70.2766 146.531 69.2648 146.531 68.1211V32.3559C146.531 25.9331 148.099 20.4782 151.235 15.991C154.372 11.5039 158.448 8.07255 163.466 5.69701C168.574 3.32146 173.995 2.13369 179.729 2.13369C185.464 2.13369 190.84 3.32146 195.858 5.69701C200.876 8.07255 204.953 11.5039 208.089 15.991C211.225 20.4782 212.793 25.9331 212.793 32.3559V96.2317H185.24V31.696C185.24 30.6402 184.971 29.7604 184.434 29.0565C183.896 28.2647 183.224 27.6488 182.417 27.2089C181.611 26.769 180.715 26.549 179.729 26.549C178.744 26.549 177.803 26.769 176.907 27.2089C176.011 27.6488 175.294 28.2647 174.756 29.0565C174.308 29.7604 174.084 30.6402 174.084 31.696V67.8571C174.084 74.3679 172.471 79.8668 169.246 84.3539C166.11 88.8411 162.033 92.2284 157.015 94.516C151.997 96.8036 146.621 97.9473 140.886 97.9473Z" fill="url(#paint0_linear_1945_719)"/>
<path d="M53.1399 93.365C44.7728 93.365 37.2958 92.2541 30.709 90.0323C24.1221 87.7217 18.5589 84.5223 14.0193 80.4343C9.47972 76.2574 6.00828 71.325 3.60497 65.6373C1.20166 59.9496 0 53.6398 0 46.7079C0 39.776 1.20166 33.4661 3.60497 27.7784C6.00828 22.0907 9.47972 17.2028 14.0193 13.1148C18.6479 8.93784 24.2111 5.7385 30.709 3.51674C37.2958 1.2061 44.7728 0.0507812 53.1399 0.0507812H67.2927V22.5795H54.0745C49.98 22.5795 46.375 23.2016 43.2596 24.4458C40.1442 25.69 37.5629 27.4229 35.5156 29.6447C33.4683 31.7776 31.9106 34.3104 30.8425 37.2431C29.8634 40.1759 29.3738 43.3308 29.3738 46.7079C29.3738 50.085 29.8634 53.2399 30.8425 56.1726C31.9106 59.1053 33.4683 61.6826 35.5156 63.9043C37.5629 66.0372 40.1442 67.7258 43.2596 68.97C46.375 70.2141 49.98 70.8362 54.0745 70.8362L68.8448 70.8696V93.3983L53.1399 93.365Z" fill="url(#paint1_linear_1945_719)"/>
<path d="M68.8448 70.8696H96.5392V82.9504C96.5392 88.7022 91.8691 93.3649 86.1082 93.3649H68.8448V70.8696Z" fill="url(#paint2_linear_1945_719)"/>
<defs>
<linearGradient id="paint0_linear_1945_719" x1="106.397" y1="0.0507813" x2="106.397" y2="97.9473" gradientUnits="userSpaceOnUse">
<stop stop-color="#9747FF"/>
<stop offset="1" stop-color="#FECE63"/>
</linearGradient>
<linearGradient id="paint1_linear_1945_719" x1="106.397" y1="0.0507813" x2="106.397" y2="97.9473" gradientUnits="userSpaceOnUse">
<stop stop-color="#9747FF"/>
<stop offset="1" stop-color="#FECE63"/>
</linearGradient>
<linearGradient id="paint2_linear_1945_719" x1="106.397" y1="0.0507813" x2="106.397" y2="97.9473" gradientUnits="userSpaceOnUse">
<stop stop-color="#9747FF"/>
<stop offset="1" stop-color="#FECE63"/>
</linearGradient>
</defs>
</svg>
