<svg width="414" height="143" viewBox="0 0 414 143" fill="none" xmlns="http://www.w3.org/2000/svg">
<path d="M412.542 43.3287C413.415 42.4026 413.999 41.3466 413.999 40.023C414.01 38.7092 413.492 37.4371 412.542 36.447C411.519 35.5182 410.216 34.9883 408.755 34.9883C407.303 34.9883 406.14 35.5196 404.97 36.447C403.956 37.3744 403.513 38.5655 403.513 40.023C403.513 41.3466 403.956 42.4026 404.97 43.3287C406.14 44.2561 407.303 44.6523 408.755 44.6523C410.216 44.6523 411.519 44.2561 412.542 43.3287ZM412.838 92.0475V49.2869H404.972L405.12 92.0475H412.838ZM394.633 51.4067L393.326 50.8754C389.83 49.0206 385.605 48.0957 380.512 48.0957C374.978 48.0957 370.465 49.2856 367.116 51.6691C365.369 52.8615 364.203 54.0513 363.33 55.6425C362.459 57.0973 362.017 58.5534 362.017 60.2732C362.017 63.1867 363.477 65.5689 366.1 67.6861C368.572 69.6735 372.21 71.2621 377.016 72.5844C381.091 73.7755 383.858 74.9679 385.605 76.1603C387.064 77.4852 387.938 78.94 387.938 80.7923C387.938 82.7783 386.772 84.3669 384.731 85.6918C382.691 86.7518 379.776 87.4129 376.142 87.4129C372.208 87.4129 368.28 86.4855 364.203 84.7618L363.183 84.1032L359.834 89.6613L361.003 90.1913C365.515 92.1774 370.468 93.1022 375.853 93.1022C381.678 93.1022 386.482 92.0436 390.267 89.6613C392.16 88.6014 393.471 87.1479 394.491 85.6931C395.506 83.9721 395.946 82.1159 395.946 80.2636V80.1272C395.946 76.9513 394.491 74.1703 391.724 71.9219C389.397 70.071 385.61 68.4798 380.658 67.1575C376.871 65.9611 374.106 64.7713 372.503 63.8452C370.756 62.6514 370.029 61.3305 370.029 59.8744C370.029 58.152 370.756 56.831 372.362 55.6399C374.106 54.5786 376.432 53.9162 379.492 53.9162C383.715 53.9162 387.21 54.5786 389.977 56.1672L390.997 56.8297L394.633 51.4067ZM347.17 54.5826C341.782 50.3468 335.086 48.0971 327.364 48.0971C319.794 48.0971 313.534 50.213 308.439 54.3176C302.758 58.9535 299.849 65.3052 299.849 73.6456V106.873H307.417V85.4282C309.748 87.8091 312.664 89.664 316.155 90.9902C319.65 92.4437 323.434 93.1048 327.514 93.1048C335.23 93.1048 341.782 90.9902 347.17 86.4842C352.704 82.1159 355.466 76.8228 355.466 70.5983C355.466 64.2453 352.704 58.9522 347.17 54.5826ZM327.364 54.0513C333.046 54.0513 337.993 55.6425 341.778 58.8171C345.712 61.9942 347.751 65.9637 347.751 70.7347C347.751 75.2316 346.001 78.9387 342.508 82.1159C338.723 85.4255 333.628 87.1479 327.513 87.1479C321.393 87.1479 316.441 85.4269 312.512 82.1159C308.875 78.8088 307.129 75.1017 307.129 70.7347C307.129 66.3625 308.877 62.5255 312.512 59.3457C316.301 55.9062 321.253 54.0513 327.364 54.0513ZM287.761 56.7024C282.67 50.8754 275.388 48.0957 265.631 48.0957C258.35 48.0957 252.086 49.9493 246.701 53.9188C240.88 58.0234 237.968 63.5854 237.968 70.4684C237.968 74.3068 239.131 78.1464 241.605 81.7197C243.793 85.1606 247.14 87.9429 251.654 90.0588C256.166 92.0462 260.97 92.971 266.212 92.971C271.164 92.971 275.821 92.0462 280.338 90.0588C284.847 87.9429 288.197 85.1606 290.382 81.7197L291.839 79.4687H283.396C281.646 81.7197 279.167 83.5746 275.97 85.0294C272.767 86.4842 269.272 87.1479 265.922 87.1479C261.263 87.1479 257.332 86.0854 253.836 83.9681C250.341 81.7184 248.014 78.9387 246.557 75.2316C251.359 73.5105 256.166 72.583 261.411 72.583L269.272 73.3754L281.501 74.4366C285.286 74.4366 288.494 73.9067 291.402 73.1143C292.569 72.7155 293.295 72.1856 293.589 71.5231C294.023 70.9945 294.023 70.071 293.736 69.0071C292.857 64.2453 290.966 60.1433 287.761 56.7024ZM285.727 67.5602L285.871 67.8225L281.647 68.3512L272.475 67.5589L259.662 66.6288H257.477C253.4 66.8938 249.616 67.5589 245.974 68.7474C246.554 63.8478 249.179 60.0069 253.547 57.2298C257.185 55.1086 261.265 53.9188 265.631 53.9188C272.471 53.9188 277.715 55.9049 281.647 59.877C283.687 62.2618 285.14 64.7752 285.727 67.5602ZM204.04 48.0957C196.614 48.0957 190.208 50.2117 185.112 54.3163C179.433 58.9522 176.666 65.3039 176.666 73.643L176.521 106.871H184.385L184.237 85.4255C186.568 87.8078 189.479 89.6613 192.829 90.9876C196.468 92.4423 200.255 93.1009 204.331 93.1009C212.049 93.1009 218.6 90.9876 223.989 86.4829C229.521 82.1146 232.141 76.8188 232.141 70.5957C232.141 64.2413 229.521 58.9482 224.132 54.5786C218.6 50.3455 212.049 48.0957 204.04 48.0957ZM189.189 59.347C193.121 55.9062 197.927 54.0513 204.04 54.0513C209.866 54.0513 214.67 55.6425 218.597 58.8171C222.533 61.9942 224.422 65.9637 224.422 70.7347C224.422 75.2316 222.678 78.9387 219.325 82.1159C215.543 85.4255 210.591 87.1479 204.185 87.1479C198.215 87.1479 193.121 85.4269 189.188 82.1159C185.693 78.8088 183.946 75.1017 183.946 70.7347C183.947 66.3638 185.693 62.5268 189.189 59.347Z" fill="#DDDDDD"/>
<ellipse cx="77.1585" cy="71.44" rx="76.8391" ry="70.9283" fill="white"/>
<path d="M121.494 18.7411C120.826 18.2811 120.192 17.7815 119.596 17.2457C107.141 9.25846 92.2687 4.98003 77.0278 5.00007C36.1437 5.00007 3.00007 35.1478 3.00007 72.3372C2.97747 86.8291 8.11665 100.938 17.6486 112.553C42.4212 105.902 64.0341 94.3308 82.5566 77.6067C101.056 60.9626 114.055 41.2634 121.494 18.7411Z" fill="#DDDDDD" fill-opacity="0.866667"/>
<path d="M77.0284 139.675C117.91 139.675 151.053 109.524 151.053 72.337C151.053 59.1731 146.898 46.8986 139.722 36.5289C139.533 36.3579 139.364 36.1702 139.217 35.9688C140.723 40.4882 141.486 45.1855 141.48 49.9079C141.48 57.5491 139.538 64.781 135.724 71.5525C131.951 77.9834 126.648 83.5678 120.201 87.8988C115.027 91.3685 108.817 94.3096 101.507 96.7207C95.6879 98.6569 88.1191 100.659 78.7424 102.596L51.7047 108.128C40.21 110.523 29.7412 113.087 20.415 115.712C33.9931 130.368 54.3132 139.675 77.0284 139.675Z" fill="#DDDDDD"/>
</svg>
