<svg width="34" height="33" viewBox="0 0 34 33" fill="none" xmlns="http://www.w3.org/2000/svg">
<path d="M33 16.2383C33 24.7843 25.8512 31.7383 17 31.7383C8.14883 31.7383 1 24.7843 1 16.2383C1 7.69226 8.14883 0.738281 17 0.738281C25.8512 0.738281 33 7.69226 33 16.2383Z" stroke="white"/>
<path d="M7.80234 15.0187C12.9047 12.7962 16.3062 11.3308 18.007 10.6229C22.8687 8.60137 23.8777 8.25028 24.5367 8.23838C24.6816 8.23606 25.0043 8.27188 25.2148 8.4421C25.3898 8.58565 25.4391 8.77979 25.4637 8.9161C25.4855 9.05227 25.5156 9.36262 25.491 9.60489C25.2285 12.3721 24.0883 19.0872 23.5086 22.1866C23.2652 23.498 22.7812 23.9377 22.3137 23.9806C21.2965 24.0741 20.5254 23.309 19.541 22.664C18.0016 21.6542 17.132 21.0258 15.6363 20.0406C13.9082 18.902 15.0293 18.2761 16.0137 17.2535C16.2707 16.9858 20.7496 12.9129 20.8344 12.5435C20.8453 12.4973 20.8562 12.325 20.7523 12.2343C20.6512 12.1432 20.5008 12.1744 20.3914 12.199C20.2355 12.234 17.7773 13.8604 13.0086 17.0779C12.3113 17.5575 11.6797 17.7913 11.1109 17.779C10.4875 17.7656 9.28437 17.4257 8.39023 17.1354C7.29648 16.7791 6.42421 16.5907 6.50078 15.9856C6.53906 15.6706 6.97382 15.3482 7.80234 15.0187Z" fill="white"/>
</svg>
