<svg width="33" height="33" viewBox="0 0 33 33" fill="none" xmlns="http://www.w3.org/2000/svg">
<path d="M16.535 0.203125C7.694 0.203125 0.5 7.39513 0.5 16.2371C0.5 25.0791 7.694 32.2711 16.535 32.2711C25.376 32.2711 32.57 25.0791 32.57 16.2371C32.57 7.39513 25.376 0.203125 16.535 0.203125ZM16.535 31.2031C8.283 31.2031 1.57 24.4891 1.57 16.2371C1.57 7.98513 8.283 1.27113 16.535 1.27113C24.787 1.27113 31.5 7.98513 31.5 16.2371C31.5 24.4891 24.787 31.2031 16.535 31.2031Z" fill="white"/>
<path d="M25.3289 11.2831C25.4398 11.0778 25.5312 10.8625 25.6019 10.6401C25.6346 10.537 25.6352 10.4263 25.6038 10.3228C25.5723 10.2192 25.5101 10.1276 25.4255 10.0602C25.3409 9.99267 25.2378 9.95242 25.1299 9.94474C25.0219 9.93706 24.9142 9.9623 24.8209 10.0171C24.3084 10.3215 23.7538 10.5483 23.1749 10.6901C22.4721 10.0559 21.5595 9.7043 20.6129 9.70312C20.0986 9.70352 19.5897 9.80776 19.1166 10.0096C18.6436 10.2114 18.2162 10.5067 17.8601 10.8777C17.5039 11.2487 17.2263 11.6878 17.044 12.1686C16.8616 12.6495 16.7783 13.1623 16.7989 13.6761C14.5499 13.393 12.4962 12.255 11.0639 10.4981C11.009 10.4316 10.9388 10.3792 10.8594 10.3456C10.78 10.3119 10.6936 10.2979 10.6076 10.3048C10.5216 10.3117 10.4386 10.3392 10.3655 10.3851C10.2924 10.4309 10.2315 10.4937 10.1879 10.5681C9.85988 11.1311 9.68161 11.7686 9.67006 12.42C9.6585 13.0714 9.81405 13.7149 10.1219 14.2891C10.0464 14.3019 9.97384 14.3283 9.90786 14.3671C9.827 14.4187 9.76043 14.4898 9.7143 14.5738C9.66816 14.6579 9.64393 14.7522 9.64386 14.8481C9.64386 15.9831 10.1489 17.0251 10.9629 17.7331L10.9279 17.7681C10.8664 17.8376 10.8241 17.922 10.8052 18.0128C10.7862 18.1036 10.7913 18.1978 10.8199 18.2861C10.9896 18.8156 11.273 19.3017 11.6503 19.7102C12.0275 20.1187 12.4895 20.4399 13.0039 20.6511C11.9474 21.1665 10.7652 21.3674 9.59786 21.2301C9.47786 21.2179 9.3572 21.2458 9.25477 21.3095C9.15235 21.3732 9.07395 21.4691 9.03186 21.5821C8.99143 21.696 8.99068 21.8202 9.0297 21.9345C9.06873 22.0489 9.14525 22.1467 9.24686 22.2121C10.8339 23.2307 12.6801 23.7718 14.5659 23.7711C20.7459 23.7711 24.4399 18.7511 24.4399 13.8981L24.4389 13.7341C25.0378 13.2665 25.558 12.7061 25.9799 12.0741C26.0437 11.9786 26.0751 11.865 26.0694 11.7502C26.0637 11.6354 26.0212 11.5255 25.9482 11.4368C25.8752 11.3481 25.7755 11.2852 25.6639 11.2575C25.5524 11.2298 25.4349 11.2388 25.3289 11.2831ZM23.5839 13.0381C23.5113 13.0903 23.453 13.1598 23.4142 13.2404C23.3754 13.3209 23.3574 13.4099 23.3619 13.4991C23.3679 13.6311 23.3709 13.7651 23.3709 13.8971C23.3709 18.2251 20.0779 22.7021 14.5669 22.7021C13.584 22.7026 12.608 22.5376 11.6799 22.2141C12.7915 22.0011 13.8357 21.5244 14.7249 20.8241C14.8114 20.7559 14.8748 20.6626 14.9063 20.5569C14.9378 20.4513 14.9359 20.3385 14.9009 20.234C14.8659 20.1295 14.7994 20.0384 14.7106 19.9731C14.6218 19.9077 14.5151 19.8714 14.4049 19.8691C13.9737 19.8609 13.5505 19.7514 13.1694 19.5496C12.7883 19.3478 12.4599 19.0592 12.2109 18.7071C12.4639 18.6901 12.7119 18.6481 12.9529 18.5831C13.0695 18.5519 13.1721 18.4821 13.244 18.385C13.3158 18.288 13.3527 18.1695 13.3485 18.0488C13.3443 17.9281 13.2993 17.8124 13.221 17.7206C13.1426 17.6288 13.0354 17.5662 12.9169 17.5431C12.4299 17.4441 11.979 17.2145 11.6124 16.8789C11.2459 16.5434 10.9775 16.1145 10.8359 15.6381C11.1019 15.7051 11.3749 15.7441 11.6479 15.7531C11.8829 15.7521 12.1009 15.6081 12.1739 15.3821C12.2469 15.1561 12.1609 14.9071 11.9619 14.7751C11.4913 14.4616 11.129 14.0105 10.9245 13.4834C10.7199 12.9564 10.683 12.379 10.8189 11.8301C12.5559 13.6124 14.9014 14.6738 17.3869 14.8021C17.5629 14.8031 17.7169 14.7401 17.8239 14.6111C17.9309 14.4821 17.9719 14.3111 17.9339 14.1471C17.7971 13.5581 17.8583 12.9405 18.1079 12.3897C18.3576 11.839 18.7818 11.3859 19.3149 11.1006C19.848 10.8152 20.4603 10.7135 21.057 10.8113C21.6537 10.909 22.2016 11.2006 22.6159 11.6411C22.6779 11.7074 22.7559 11.7567 22.8423 11.7845C22.9287 11.8123 23.0208 11.8177 23.1099 11.8001C23.2749 11.7671 23.4379 11.7291 23.5989 11.6851C23.5263 11.7395 23.4508 11.7899 23.3729 11.8361C23.2692 11.8996 23.1902 11.9966 23.149 12.111C23.1078 12.2254 23.1067 12.3505 23.1461 12.4655C23.1855 12.5806 23.2629 12.6788 23.3655 12.744C23.4682 12.8092 23.59 12.8374 23.7109 12.8241L23.8929 12.8011C23.7926 12.8837 23.6896 12.9627 23.5839 13.0381Z" fill="white"/>
</svg>
